<svg xmlns="http://www.w3.org/2000/svg" xmlns:xlink="http://www.w3.org/1999/xlink" width="168" height="216.748" viewBox="0 0 168 216.748">
  <defs>
    <clipPath id="clip-path">
      <circle id="Ellipse_14" data-name="Ellipse 14" cx="84" cy="84" r="84" transform="translate(25.892 93.892)" fill="#fff"/>
    </clipPath>
    <clipPath id="clip-path-2">
      <path id="Path_94" data-name="Path 94" d="M504.129,1382.5s28.553,11.884,53.9,7.805,48.365-13.111,71.383-16.025,43.121,5.827,43.121,5.827v-111.26h-168.4Z" transform="translate(-504.129 -1268.845)" fill="#767b91"/>
    </clipPath>
  </defs>
  <g id="notification" transform="translate(-123 -247.252)">
    <g id="Mask_Group_15" data-name="Mask Group 15" transform="translate(97.108 202.108)" clip-path="url(#clip-path)">
      <path id="Path_95" data-name="Path 95" d="M504.129,1364.093s28.553,11.884,53.9,7.8,48.365-13.111,71.383-16.025,43.121,5.827,43.121,5.827V1234.5h-168.4Z" transform="translate(-478.238 -1142.234)" fill="#8e8e8e"/>
      <g id="Mask_Group_14" data-name="Mask Group 14" transform="translate(25.488 108.207)" clip-path="url(#clip-path-2)">
        <g id="Group_279" data-name="Group 279" transform="translate(29.532 7.33)">
          <g id="Group_278" data-name="Group 278" transform="translate(0 0)">
            <g id="Path_96" data-name="Path 96" transform="translate(0 0)" fill="#fff">
              <path d="M 94.156005859375 205.2771759033203 L 15.5887565612793 205.2771759033203 C 13.21517372131348 205.2771759033203 10.91150665283203 204.8118591308594 8.741812705993652 203.8941497802734 C 6.647118091583252 203.0081787109375 4.766312122344971 201.740234375 3.151617765426636 200.1255645751953 C 1.536951184272766 198.5108947753906 0.269006758928299 196.6300811767578 -0.6169654726982117 194.535400390625 C -1.534687638282776 192.3656768798828 -1.999993205070496 190.0620269775391 -1.999993205070496 187.6884460449219 L -1.999993205070496 15.58875465393066 C -1.999993205070496 13.21517086029053 -1.534687638282776 10.9115047454834 -0.6169654726982117 8.741809844970703 C 0.269006758928299 6.647115707397461 1.536951184272766 4.766310214996338 3.151617765426636 3.151615619659424 C 4.766312122344971 1.536949038505554 6.647118091583252 0.269004613161087 8.741812705993652 -0.6169676184654236 C 10.91150665283203 -1.534689784049988 13.21517372131348 -1.999995350837708 15.5887565612793 -1.999995350837708 L 94.156005859375 -1.999995350837708 C 96.52958679199219 -1.999995350837708 98.83322906494141 -1.534689784049988 101.0029525756836 -0.6169676184654236 C 103.0976486206055 0.269004613161087 104.9784545898438 1.536949038505554 106.5931167602539 3.151615619659424 C 108.2077865600586 4.766310214996338 109.4757308959961 6.647115707397461 110.361701965332 8.741809844970703 C 111.279426574707 10.9115047454834 111.7447280883789 13.21517086029053 111.7447280883789 15.58875465393066 L 111.7447280883789 187.6884460449219 C 111.7447280883789 190.0620269775391 111.279426574707 192.3656768798828 110.361701965332 194.535400390625 C 109.4757308959961 196.6300811767578 108.2077865600586 198.5108947753906 106.5931167602539 200.1255645751953 C 104.9784545898438 201.740234375 103.0976486206055 203.0081787109375 101.0029525756836 203.8941497802734 C 98.83322906494141 204.8118591308594 96.52958679199219 205.2771759033203 94.156005859375 205.2771759033203 Z" stroke="none"/>
              <path d="M 15.58875274658203 0 C 6.97930908203125 0 -1.52587890625e-05 6.979324340820313 -1.52587890625e-05 15.58872985839844 L -1.52587890625e-05 187.6884460449219 C -1.52587890625e-05 196.2978515625 6.97930908203125 203.2771759033203 15.58875274658203 203.2771759033203 L 94.15598297119141 203.2771759033203 C 102.7654266357422 203.2771759033203 109.7447204589844 196.2978515625 109.7447204589844 187.6884460449219 L 109.7447204589844 15.58872985839844 C 109.7447204589844 6.979324340820313 102.7654266357422 0 94.15598297119141 0 L 15.58875274658203 0 M 15.58875274658203 -4 L 94.15598297119141 -4 C 96.79869079589844 -4 99.36445617675781 -3.481536865234375 101.7820434570313 -2.458969116210938 C 104.1151351928711 -1.472183227539063 106.2096328735352 -0.0602874755859375 108.0073089599609 1.737411499023438 C 109.8050155639648 3.535110473632813 111.2168960571289 5.629623413085938 112.2036895751953 7.96270751953125 C 113.2262496948242 10.38026428222656 113.7447204589844 12.94602966308594 113.7447204589844 15.58872985839844 L 113.7447204589844 187.6884460449219 C 113.7447204589844 190.3311462402344 113.2262496948242 192.8969116210938 112.2036895751953 195.3144683837891 C 111.2168960571289 197.6475524902344 109.8050155639648 199.7420654296875 108.0073089599609 201.5397644042969 C 106.2096328735352 203.3374633789063 104.1151351928711 204.7493591308594 101.7820434570313 205.7361450195313 C 99.36445617675781 206.7587127685547 96.79869079589844 207.2771759033203 94.15598297119141 207.2771759033203 L 15.58875274658203 207.2771759033203 C 12.946044921875 207.2771759033203 10.38027954101563 206.7587127685547 7.962692260742188 205.7361450195313 C 5.629600524902344 204.7493591308594 3.535102844238281 203.3374633789063 1.737396240234375 201.5397644042969 C -0.06031036376953125 199.7420654296875 -1.472160339355469 197.6475830078125 -2.458984375 195.3144989013672 C -3.481544494628906 192.8969116210938 -4.000015258789063 190.3311462402344 -4.000015258789063 187.6884460449219 L -4.000015258789063 15.58872985839844 C -4.000015258789063 12.94602966308594 -3.481544494628906 10.38026428222656 -2.458984375 7.962677001953125 C -1.472160339355469 5.629592895507813 -0.06031036376953125 3.535110473632813 1.737396240234375 1.737411499023438 C 3.535102844238281 -0.0602874755859375 5.629600524902344 -1.472183227539063 7.962692260742188 -2.458969116210938 C 10.38027954101563 -3.481536865234375 12.946044921875 -4 15.58875274658203 -4 Z" stroke="none" fill="#d1d1d1"/>
            </g>
            <rect id="Rectangle_109" data-name="Rectangle 109" width="102" height="163" transform="translate(3.872 25.355)" fill="#d1d1d1"/>
            <rect id="Rectangle_110" data-name="Rectangle 110" width="34" height="5" rx="2.5" transform="translate(37.872 10.355)" fill="#d1d1d1"/>
            <circle id="Ellipse_12" data-name="Ellipse 12" cx="2" cy="2" r="2" transform="translate(28.872 10.355)" fill="#d1d1d1"/>
            <circle id="Ellipse_13" data-name="Ellipse 13" cx="2" cy="2" r="2" transform="translate(52.872 3.355)" fill="#d1d1d1"/>
          </g>
        </g>
      </g>
    </g>
    <g id="Group_280" data-name="Group 280">
      <path id="bell-regular" d="M28.425,23.438c-1.25-1.343-3.589-3.363-3.589-9.982A10.216,10.216,0,0,0,16.56,3.418V2.07a2.069,2.069,0,1,0-4.138,0V3.418A10.216,10.216,0,0,0,4.145,13.456c0,6.618-2.339,8.639-3.589,9.982A2.021,2.021,0,0,0,0,24.842a2.072,2.072,0,0,0,2.077,2.07H26.905a2.072,2.072,0,0,0,2.077-2.07,2.02,2.02,0,0,0-.557-1.4Zm-24.057.369C5.741,22,7.242,19,7.249,13.494c0-.013,0-.025,0-.038a7.246,7.246,0,1,1,14.491,0c0,.013,0,.025,0,.038C21.74,19,23.24,22,24.613,23.807Zm10.123,9.316a4.14,4.14,0,0,0,4.138-4.14H10.352A4.14,4.14,0,0,0,14.491,33.123Z" transform="matrix(0.966, 0.259, -0.259, 0.966, 197.29, 247.252)" fill="#8e8e8e"/>
      <circle id="Ellipse_15" data-name="Ellipse 15" cx="5" cy="5" r="5" transform="translate(210 257)" fill="red"/>
    </g>
  </g>
</svg>
