<svg xmlns="http://www.w3.org/2000/svg" width="201.386" height="225.323" viewBox="0 0 201.386 225.323">
  <g id="rating" transform="translate(-100 -204.677)">
    <path id="Path_36" data-name="Path 36" d="M599.246-430.743c77.388,20.987,59.681,30.168,66.239,55.746s60.992,39.35,27.545,68.206-135.1,24.266-167.237-13.772,25.578-58.369,19.019-95.1S599.246-430.743,599.246-430.743Z" transform="translate(-402.428 704.692)" fill="#dedede"/>
    <path id="Union_2" data-name="Union 2" d="M57.6,81.073l-.1.072-.1-.068L14.989,112.323,33.305,63.932,0,40.238H42.274L57.5,0,72.735,40.238H115L81.7,63.927l18.319,48.4Z" transform="translate(100 204.677)" fill="#9d9d9d"/>
    <path id="Union_2-2" data-name="Union 2" d="M45.58,63.75l-.08.056-.076-.054L11.861,88.323,26.355,50.272,0,31.641H33.451L45.5,0,57.556,31.641H91L64.651,50.268l14.5,38.055Z" transform="translate(149 332.677)" fill="#9d9d9d"/>
    <path id="Union_2-3" data-name="Union 2" d="M21.538,30.548l-.038.027-.036-.026L5.6,42.323,12.453,24.09,0,15.162H15.807L21.5,0,27.2,15.162H43l-12.45,8.926L37.4,42.323Z" transform="translate(230 387.677)" fill="#9d9d9d"/>
    <path id="Union_2-4" data-name="Union 2" d="M12.522,17.556l-.022.016-.021-.015L3.258,24.323,7.24,13.844,0,8.713H9.19L12.5,0l3.311,8.713H25l-7.239,5.13,3.982,10.48Z" transform="translate(273 379.677)" fill="#fff"/>
    <path id="Union_2-5" data-name="Union 2" d="M5.509,8.895,5.5,8.9l-.009-.008L1.434,12.323,3.186,7.014,0,4.415H4.043L5.5,0,6.957,4.415H11l-3.185,2.6,1.752,5.31Z" transform="translate(267 364.677)" fill="#fff"/>
  </g>
</svg>
