<svg xmlns="http://www.w3.org/2000/svg" width="187.826" height="148.958" viewBox="0 0 187.826 148.958">
  <g id="reviews" transform="translate(-113.56 -267.615)">
    <g id="Group_216" data-name="Group 216" transform="translate(-402.428 704.692)">
      <path id="Path_36" data-name="Path 36" d="M599.246-430.743c77.388,20.987,59.681,30.168,66.239,55.746s60.992,39.35,27.545,68.206-135.1,24.266-167.237-13.772,25.578-58.369,19.019-95.1S599.246-430.743,599.246-430.743Z" transform="translate(0 0)" fill="#dedede"/>
      <path id="Subtraction_1" data-name="Subtraction 1" d="M12.672,78.447h0c.019-.044,1.9-4.42,3.6-9.032,1.531-4.152,3.239-9.387,2.685-10.746a.532.532,0,0,0-.282-.314,29.3,29.3,0,0,1-7.5-4.448A30.439,30.439,0,0,1,8.821,8.878,29.928,29.928,0,0,1,30.117,0H68.888a29.927,29.927,0,0,1,21.3,8.878,30.411,30.411,0,0,1,0,42.865,29.926,29.926,0,0,1-21.3,8.878H30.117C28.615,60.62,12.831,78.269,12.672,78.447ZM73.389,25.781a4.877,4.877,0,1,0,4.847,4.877A4.867,4.867,0,0,0,73.389,25.781Zm-23.539,0A4.877,4.877,0,1,0,54.7,30.658,4.867,4.867,0,0,0,49.849,25.781Zm-23.54,0a4.877,4.877,0,1,0,4.847,4.877A4.867,4.867,0,0,0,26.31,25.781Z" transform="translate(515.995 -424.192)" fill="#828282"/>
      <path id="Subtraction_2" data-name="Subtraction 2" d="M9.8,0h0C9.809.034,11.26,3.4,12.575,6.937c1.183,3.189,2.5,7.21,2.076,8.254a.41.41,0,0,1-.218.241,22.681,22.681,0,0,0-5.8,3.416,23.287,23.287,0,0,0,14.645,41.4H53.249a23.28,23.28,0,1,0,0-46.559H23.28C22.119,13.692,9.918.137,9.8,0ZM56.727,40.45A3.746,3.746,0,1,1,60.474,36.7,3.75,3.75,0,0,1,56.727,40.45Zm-18.2,0A3.746,3.746,0,1,1,42.278,36.7,3.75,3.75,0,0,1,38.532,40.45Zm-18.2,0A3.746,3.746,0,1,1,24.083,36.7,3.75,3.75,0,0,1,20.337,40.45Z" transform="translate(670.122 -302.397) rotate(180)" fill="#fff"/>
    </g>
  </g>
</svg>
