<svg xmlns="http://www.w3.org/2000/svg" xmlns:xlink="http://www.w3.org/1999/xlink" width="414" height="215" viewBox="0 0 414 215">
  <defs>
    <clipPath id="clip-path">
      <rect id="Rectangle_119" data-name="Rectangle 119" width="414" height="215" fill="#fff" stroke="#707070" stroke-width="1"/>
    </clipPath>
  </defs>
  <g id="Road_SVG" data-name="Road SVG" clip-path="url(#clip-path)">
    <g id="Group_391" data-name="Group 391">
      <path id="Path_126" data-name="Path 126" d="M595.28,0V148.27c-34.37,18.34-62.06,21.7-81.77,20.87-58.32-2.47-76.81-38.7-141.24-38.7-36,0-59,10.5-74.63,18h0c-34.37,18.35-62.06,21.7-81.76,20.87-58.33-2.46-76.82-38.69-141.24-38.69C38.88,130.63,16,141,.32,148.5V0Z" transform="translate(-91)" fill="#fab62b"/>
      <g id="Group_390" data-name="Group 390" transform="translate(-104 299)">
        <path id="Path_127" data-name="Path 127" d="M297.64,133.45v15c-34.37,18.35-62.06,21.7-81.76,20.87-58.33-2.46-76.82-38.69-141.24-38.69C38.88,130.63,16,141,.32,148.5l-.32.15v-15l.32-.15C16,126,38.88,115.63,74.64,115.63c64.42,0,82.91,36.23,141.24,38.69C235.58,155.15,263.27,151.8,297.64,133.45Z" transform="translate(13 -285)" fill="#3f4456"/>
        <path id="Path_128" data-name="Path 128" d="M297.64,133.45h0v15h0Z" transform="translate(13 -285)" fill="#3f4456"/>
        <path id="Path_129" data-name="Path 129" d="M.08,141.47l-.08.05v.57l.32-.18Z" transform="translate(13 -285)" fill="#fff"/>
        <path id="Path_130" data-name="Path 130" d="M76.71,122.19H74.52v.5h5.89v-.5C79.2,122.21,78,122.19,76.71,122.19Zm-8.2.23c-2,.11-4,.26-5.94.44v.5c2-.18,4-.33,5.93-.44Zm17.87.12v.5c2,.15,4,.34,5.9.57l.06-.49q-2.985-.36-5.96-.58Zm-29.74,1c-2,.26-3.94.56-5.9.89l.08.49c2-.33,3.94-.63,5.88-.88Zm41.57.43-.08.5c1.93.32,3.89.69,5.83,1.11l.1-.49c-1.94-.43-3.91-.8-5.85-1.09Zm-53.33,1.55c-1.94.4-3.89.84-5.82,1.3l.11.49c1.93-.47,3.88-.9,5.81-1.3Zm65,.95-.12.48c1.87.49,3.8,1,5.71,1.61l.15-.48c-1.95-.59-3.88-1.14-5.76-1.62ZM33.3,128.32c-1.9.53-3.82,1.1-5.71,1.69l.15.48c1.88-.59,3.8-1.16,5.7-1.69Zm88,1.59-.16.47c1.81.63,3.69,1.3,5.59,2l.18-.47c-1.91-.71-3.82-1.39-5.64-2.01Zm-99.36,2c-1.88.66-3.76,1.36-5.59,2.08l.18.47c1.83-.72,3.7-1.42,5.57-2.08Zm110.52,2.21-.19.46c1.76.72,3.56,1.47,5.49,2.3l.2-.46c-1.96-.85-3.77-1.6-5.53-2.32ZM10.81,136.26c-1.85.8-3.67,1.64-5.42,2.49l.22.45c1.74-.85,3.56-1.68,5.4-2.49Zm132.58,2.53-.2.45,5.43,2.43.2-.45Q146.12,140,143.39,138.79Zm152.81,3.52c-1.78.95-3.55,1.87-5.28,2.74l.22.45c1.74-.87,3.52-1.8,5.29-2.75Zm-141.95,1.35-.21.46c1.81.81,3.62,1.62,5.44,2.41l.2-.45q-2.68-1.2-5.43-2.42Zm131.33,4c-1.81.86-3.63,1.69-5.42,2.47l.2.46c1.79-.79,3.62-1.62,5.43-2.47Zm-120.45.77-.19.46c1.94.82,3.74,1.56,5.51,2.26l.18-.46c-1.76-.69-3.56-1.44-5.5-2.26Zm109.55,4c-1.86.74-3.73,1.45-5.55,2.11l.17.47c1.83-.66,3.7-1.37,5.57-2.12Zm-98.5.39-.17.47c1.91.7,3.8,1.36,5.62,2l.16-.47c-1.79-.64-3.71-1.3-5.61-2Zm87.32,3.63c-1.91.6-3.83,1.17-5.7,1.68l.13.48c1.88-.51,3.8-1.08,5.72-1.69Zm-76,.12-.14.48c1.92.56,3.85,1.09,5.75,1.57l.12-.49c-1.93-.47-3.86-1-5.77-1.56Zm11.51,2.9-.1.49c1.95.4,3.92.77,5.86,1.09l.08-.5c-1.97-.31-3.94-.68-5.85-1.08Zm53.06.08c-1.95.43-3.91.82-5.83,1.15l.08.49c1.93-.33,3.9-.72,5.86-1.15Zm-41.34,1.84-.06.49c2,.24,4,.43,5.93.58v-.5c-1.97-.15-3.96-.34-5.91-.57Zm29.63.16c-2,.23-3.95.42-5.91.55v.5c2-.13,4-.32,5.94-.55Zm-11.85.78c-2,0-3.93,0-5.94-.05v.5c1.4,0,2.8.07,4.16.07h1.8Z" transform="translate(13 -285)" fill="#fff"/>
        <path id="Path_131" data-name="Path 131" d="M297.52,134.23c-28,14.93-55.44,21.94-81.63,20.84-27.71-1.17-46-9.77-65.35-18.89-20.69-9.73-42.08-19.8-75.9-19.8-37.13,0-60.59,11.24-74.64,18v.56l.11-.05c14-6.74,37.42-18,74.53-18,33.71,0,55.05,10,75.69,19.76,18.55,8.73,37.73,17.76,65.53,18.93,1.79.08,3.59.11,5.39.11,24.61,0,50.28-7,76.39-20.94v-.57Z" transform="translate(13 -285)" fill="#fff"/>
        <path id="Path_132" data-name="Path 132" d="M297.52,147.23c-28,14.93-55.44,21.94-81.63,20.84-27.71-1.17-46-9.77-65.35-18.89-20.69-9.73-42.08-19.8-75.9-19.8-37.13,0-60.59,11.24-74.64,18v.56l.11-.05c14-6.74,37.42-18,74.53-18,33.71,0,55.05,10,75.69,19.76,18.55,8.73,37.73,17.76,65.53,18.93,1.79.08,3.59.11,5.39.11,24.61,0,50.28-7,76.39-20.94v-.57Z" transform="translate(13 -285)" fill="#fff"/>
        <path id="Path_133" data-name="Path 133" d="M595.28,133.27v15c-34.37,18.34-62.06,21.7-81.77,20.87-58.32-2.47-76.81-38.7-141.24-38.7-36,0-59,10.5-74.63,18v-15c15.64-7.53,38.64-18,74.63-18,64.43,0,82.92,36.23,141.24,38.7C533.22,155,560.91,151.61,595.28,133.27Z" transform="translate(13 -285)" fill="#3f4456"/>
        <path id="Path_134" data-name="Path 134" d="M595.28,133.27h0v15h0Z" transform="translate(13 -285)" fill="#3f4456"/>
        <path id="Path_135" data-name="Path 135" d="M374.35,122h-2.24v.5h5.94V122Zm-8.2.22c-2,.11-4,.26-5.95.45l.05.5c2-.19,4-.34,5.93-.45Zm17.87.13v.5c2,.14,4,.33,5.91.57l.06-.5c-1.99-.22-3.99-.42-5.99-.56Zm-29.74,1c-2,.25-3.94.55-5.9.88l.08.49c2-.32,3.94-.62,5.88-.88Zm41.57.43-.08.49c1.93.32,3.89.7,5.83,1.11l.1-.49C399.76,124.48,397.79,124.1,395.85,123.78Zm-53.33,1.55c-1.94.39-3.9.83-5.83,1.3l.12.48c1.92-.46,3.88-.9,5.81-1.29Zm65,.94-.12.48c1.87.49,3.79,1,5.71,1.61l.15-.48c-1.95-.58-3.88-1.12-5.76-1.61Zm-76.58,1.85c-1.9.53-3.83,1.1-5.72,1.7l.15.47c1.89-.59,3.81-1.16,5.71-1.69Zm88,1.6-.16.47c1.81.62,3.69,1.3,5.59,2l.17-.46c-1.93-.73-3.81-1.39-5.63-2.01Zm-99.36,2c-1.88.67-3.76,1.37-5.59,2.09l.18.46c1.82-.72,3.7-1.41,5.57-2.08Zm110.52,2.22-.19.46c1.76.71,3.55,1.46,5.49,2.3l.2-.46c-1.97-.86-3.77-1.61-5.53-2.32Zm-121.62,2.15c-1.85.81-3.67,1.64-5.42,2.5l.21.45c1.75-.85,3.57-1.69,5.41-2.49ZM441,138.6l-.2.46q2.71,1.2,5.43,2.43l.2-.46Zm152.8,3.52c-1.77.95-3.54,1.87-5.27,2.75l.22.44c1.73-.87,3.51-1.8,5.29-2.74Zm-141.94,1.36-.21.45,5.44,2.42.2-.46q-2.7-1.2-5.4-2.41Zm131.32,4c-1.81.85-3.63,1.68-5.41,2.46l.2.46c1.79-.78,3.61-1.61,5.43-2.47Zm-120.44.76-.19.46c1.94.82,3.74,1.56,5.51,2.27l.18-.47c-1.73-.7-3.53-1.44-5.47-2.26Zm109.55,4c-1.86.74-3.73,1.46-5.56,2.11l.17.47c1.84-.66,3.71-1.37,5.57-2.12Zm-98.5.39-.17.47c1.9.7,3.79,1.37,5.62,2l.16-.48c-1.79-.62-3.68-1.29-5.58-1.99Zm87.31,3.63c-1.9.61-3.82,1.17-5.7,1.68l.14.48c1.88-.51,3.8-1.07,5.72-1.68Zm-76,.12-.14.48c1.92.57,3.85,1.09,5.74,1.57l.13-.48c-1.89-.48-3.83-1.01-5.73-1.57Zm11.51,2.9-.1.49c1.95.41,3.92.77,5.86,1.09l.08-.49C500.51,160.05,498.55,159.68,496.61,159.28Zm53.06.08c-1.95.44-3.91.82-5.83,1.15l.08.49c1.93-.33,3.9-.71,5.85-1.15Zm-41.34,1.84-.06.5c2,.23,4,.42,5.93.57v-.5C512.27,161.63,510.28,161.43,508.33,161.2Zm29.63.16c-2,.24-4,.42-5.91.55v.5c2-.13,4-.32,5.94-.55Zm-11.85.79c-2,0-3.93,0-5.94-.06v.5c1.4,0,2.8.07,4.17.07h1.8Z" transform="translate(13 -285)" fill="#fff"/>
        <path id="Path_136" data-name="Path 136" d="M595.16,134.05c-28,14.93-55.44,21.94-81.64,20.84-27.7-1.17-46-9.78-65.34-18.89-20.69-9.74-42.08-19.81-75.91-19.81-37.12,0-60.59,11.24-74.63,18v.55l.11-.05c14-6.73,37.42-18,74.52-18,33.72,0,55.06,10,75.7,19.76,18.55,8.73,37.73,17.76,65.53,18.94,1.79.07,3.59.11,5.39.11,24.61,0,50.28-7,76.39-20.95V134Z" transform="translate(13 -285)" fill="#fff"/>
        <path id="Path_137" data-name="Path 137" d="M595.16,147.05c-28,14.93-55.44,21.94-81.64,20.84-27.7-1.17-46-9.78-65.34-18.89-20.69-9.74-42.08-19.81-75.91-19.81-37.12,0-60.59,11.24-74.63,18v.55l.11-.05c14-6.73,37.42-18,74.52-18,33.72,0,55.06,10.05,75.7,19.76,18.55,8.73,37.73,17.76,65.53,18.94,1.79.07,3.59.11,5.39.11,24.61,0,50.28-7,76.39-20.95V147Z" transform="translate(13 -285)" fill="#fff"/>
      </g>
    </g>
  </g>
</svg>
