<svg xmlns="http://www.w3.org/2000/svg" xmlns:xlink="http://www.w3.org/1999/xlink" width="414" height="896" viewBox="0 0 414 896">
  <defs>
    <clipPath id="clip-path">
      <rect id="Rectangle_96" data-name="Rectangle 96" width="414" height="896" fill="#fff" stroke="#707070" stroke-width="1"/>
    </clipPath>
    <clipPath id="clip-path-2">
      <rect id="Rectangle_93" data-name="Rectangle 93" width="414" height="896" fill="#fff"/>
    </clipPath>
    <clipPath id="clip-path-3">
      <rect id="Rectangle_118" data-name="Rectangle 118" width="414" height="215" fill="#fff" stroke="#707070" stroke-width="1"/>
    </clipPath>
  </defs>
  <g id="Splash_screen" data-name="Splash screen" clip-path="url(#clip-path)">
    <g id="Group_223" data-name="Group 223" transform="translate(-102 713)">
      <path id="Path_37" data-name="Path 37" d="M.32,169.425V21.155C34.69,2.815,62.38-.545,82.09.285c58.32,2.47,76.81,38.7,141.24,38.7,36,0,59-10.5,74.63-18h0c34.37-18.35,62.06-21.7,81.76-20.87,58.33,2.46,76.82,38.69,141.24,38.69,35.76-.01,58.64-10.38,74.32-17.88v148.5Z" transform="translate(-0.32 14.01)" fill="#fab62b"/>
      <g id="Group_221" data-name="Group 221" transform="translate(0 0)">
        <path id="Path_38" data-name="Path 38" d="M0,151.615v-15c34.37-18.35,62.06-21.7,81.76-20.87,58.33,2.46,76.82,38.69,141.24,38.69,35.76,0,58.64-10.37,74.32-17.87l.32-.15v15l-.32.15c-15.68,7.5-38.56,17.87-74.32,17.87-64.42,0-82.91-36.23-141.24-38.69C62.06,129.915,34.37,133.265,0,151.615Z" transform="translate(297.64 -115.63)" fill="#3f4456"/>
        <path id="Path_39" data-name="Path 39" d="M297.64,148.45h0v-15h0Z" transform="translate(0 -112.465)" fill="#3f4456"/>
        <path id="Path_40" data-name="Path 40" d="M.24,142.09l.08-.05v-.57l-.32.18Z" transform="translate(594.96 -114.125)" fill="#fff"/>
        <path id="Path_41" data-name="Path 41" d="M225.11,162.85h2.19v-.5h-5.89v.5C222.62,162.83,223.82,162.85,225.11,162.85Zm8.2-.23c2-.11,4-.26,5.94-.44v-.5c-2,.18-4,.33-5.93.44Zm-17.87-.12V162c-2-.15-4-.34-5.9-.57l-.06.49q2.985.36,5.96.58Zm29.74-1c2-.26,3.94-.56,5.9-.89l-.08-.49c-2,.33-3.94.63-5.88.88Zm-41.57-.43.08-.5c-1.93-.32-3.89-.69-5.83-1.11l-.1.49c1.94.43,3.91.8,5.85,1.09Zm53.33-1.55c1.94-.4,3.89-.84,5.82-1.3l-.11-.49c-1.93.47-3.88.9-5.81,1.3Zm-65-.95.12-.48c-1.87-.49-3.8-1-5.71-1.61l-.15.48c1.95.59,3.88,1.14,5.76,1.62Zm76.58-1.85c1.9-.53,3.82-1.1,5.71-1.69l-.15-.48c-1.88.59-3.8,1.16-5.7,1.69Zm-88-1.59.16-.47c-1.81-.63-3.69-1.3-5.59-2l-.18.47c1.91.71,3.82,1.39,5.64,2.01Zm99.36-2c1.88-.66,3.76-1.36,5.59-2.08l-.18-.47c-1.83.72-3.7,1.42-5.57,2.08Zm-110.52-2.21.19-.46c-1.76-.72-3.56-1.47-5.49-2.3l-.2.46c1.96.85,3.77,1.6,5.53,2.32Zm121.65-2.14c1.85-.8,3.67-1.64,5.42-2.49l-.22-.45c-1.74.85-3.56,1.68-5.4,2.49Zm-132.58-2.53.2-.45-5.43-2.43-.2.45Q155.7,145.04,158.43,146.25ZM5.62,142.73c1.78-.95,3.55-1.87,5.28-2.74l-.22-.45c-1.74.87-3.52,1.8-5.29,2.75Zm141.95-1.35.21-.46c-1.81-.81-3.62-1.62-5.44-2.41l-.2.45q2.68,1.2,5.43,2.42Zm-131.33-4c1.81-.86,3.63-1.69,5.42-2.47l-.2-.46c-1.79.79-3.62,1.62-5.43,2.47Zm120.45-.77.19-.46c-1.94-.82-3.74-1.56-5.51-2.26l-.18.46c1.76.69,3.56,1.44,5.5,2.26Zm-109.55-4c1.86-.74,3.73-1.45,5.55-2.11l-.17-.47c-1.83.66-3.7,1.37-5.57,2.12Zm98.5-.39.17-.47c-1.91-.7-3.8-1.36-5.62-2l-.16.47c1.79.64,3.71,1.3,5.61,2Zm-87.32-3.63c1.91-.6,3.83-1.17,5.7-1.68l-.13-.48c-1.88.51-3.8,1.08-5.72,1.69Zm76-.12.14-.48c-1.92-.56-3.85-1.09-5.75-1.57l-.12.49c1.93.47,3.86,1,5.77,1.56Zm-11.51-2.9.1-.49c-1.95-.4-3.92-.77-5.86-1.09l-.08.5c1.97.31,3.94.68,5.85,1.08Zm-53.06-.08c1.95-.43,3.91-.82,5.83-1.15l-.08-.49c-1.93.33-3.9.72-5.86,1.15Zm41.34-1.84.06-.49c-2-.24-4-.43-5.93-.58v.5c1.97.15,3.96.34,5.91.57Zm-29.63-.16c2-.23,3.95-.42,5.91-.55v-.5c-2,.13-4,.32-5.94.55Zm11.85-.78c2,0,3.93,0,5.94.05v-.5c-1.4,0-2.8-.07-4.16-.07h-1.8Z" transform="translate(293.46 -115.605)" fill="#fff"/>
        <path id="Path_42" data-name="Path 42" d="M.12,137.84c28-14.93,55.44-21.94,81.63-20.84,27.71,1.17,46,9.77,65.35,18.89,20.69,9.73,42.08,19.8,75.9,19.8,37.13,0,60.59-11.24,74.64-18v-.56l-.11.05c-14,6.74-37.42,18-74.53,18-33.71,0-55.05-10-75.69-19.76-18.55-8.73-37.73-17.76-65.53-18.93-1.79-.08-3.59-.11-5.39-.11-24.61,0-50.28,7-76.39,20.94v.57Z" transform="translate(297.64 -102.635)" fill="#fff"/>
        <path id="Path_43" data-name="Path 43" d="M.12,150.84c28-14.93,55.44-21.94,81.63-20.84,27.71,1.17,46,9.77,65.35,18.89,20.69,9.73,42.08,19.8,75.9,19.8,37.13,0,60.59-11.24,74.64-18v-.56l-.11.05c-14,6.74-37.42,18-74.53,18-33.71,0-55.05-10-75.69-19.76-18.55-8.73-37.73-17.76-65.53-18.93-1.79-.08-3.59-.11-5.39-.11-24.61,0-50.28,7-76.39,20.94v.57Z" transform="translate(297.64 -128.635)" fill="#fff"/>
        <path id="Path_44" data-name="Path 44" d="M297.64,151.424v-15c34.37-18.34,62.06-21.7,81.77-20.87,58.32,2.47,76.81,38.7,141.24,38.7,36,0,59-10.5,74.63-18v15c-15.64,7.53-38.64,18-74.63,18-64.43,0-82.92-36.23-141.24-38.7C359.7,129.694,332.01,133.084,297.64,151.424Z" transform="translate(-297.64 -115.26)" fill="#3f4456"/>
        <path id="Path_45" data-name="Path 45" d="M595.28,148.27h0v-15h0Z" transform="translate(-595.28 -112.105)" fill="#3f4456"/>
        <path id="Path_46" data-name="Path 46" d="M522.75,162.66h2.24v-.5h-5.94v.5Zm8.2-.22c2-.11,4-.26,5.95-.45l-.05-.5c-2,.19-4,.34-5.93.45Zm-17.87-.13v-.5c-2-.14-4-.33-5.91-.57l-.06.5c1.99.22,3.99.42,5.99.56Zm29.74-1c2-.25,3.94-.55,5.9-.88l-.08-.49c-2,.32-3.94.62-5.88.88Zm-41.57-.43.08-.49c-1.93-.32-3.89-.7-5.83-1.11l-.1.49C497.34,160.18,499.31,160.56,501.25,160.88Zm53.33-1.55c1.94-.39,3.9-.83,5.83-1.3l-.12-.48c-1.92.46-3.88.9-5.81,1.29Zm-65-.94.12-.48c-1.87-.49-3.79-1-5.71-1.61l-.15.48c1.95.58,3.88,1.12,5.76,1.61Zm76.58-1.85c1.9-.53,3.83-1.1,5.72-1.7l-.15-.47c-1.89.59-3.81,1.16-5.71,1.69Zm-88-1.6.16-.47c-1.81-.62-3.69-1.3-5.59-2l-.17.46c1.93.73,3.81,1.39,5.63,2.01Zm99.36-2c1.88-.67,3.76-1.37,5.59-2.09l-.18-.46c-1.82.72-3.7,1.41-5.57,2.08ZM467,150.72l.19-.46c-1.76-.71-3.55-1.46-5.49-2.3l-.2.46c1.97.86,3.77,1.61,5.53,2.32Zm121.62-2.15c1.85-.81,3.67-1.64,5.42-2.5l-.21-.45c-1.75.85-3.57,1.69-5.41,2.49ZM456.1,146.06l.2-.46q-2.71-1.2-5.43-2.43l-.2.46Zm-152.8-3.52c1.77-.95,3.54-1.87,5.27-2.75l-.22-.44c-1.73.87-3.51,1.8-5.29,2.74Zm141.94-1.36.21-.45-5.44-2.42-.2.46q2.7,1.2,5.4,2.41Zm-131.32-4c1.81-.85,3.63-1.68,5.41-2.46l-.2-.46c-1.79.78-3.61,1.61-5.43,2.47Zm120.44-.76.19-.46c-1.94-.82-3.74-1.56-5.51-2.27l-.18.47c1.73.7,3.53,1.44,5.47,2.26Zm-109.55-4c1.86-.74,3.73-1.46,5.56-2.11l-.17-.47c-1.84.66-3.71,1.37-5.57,2.12Zm98.5-.39.17-.47c-1.9-.7-3.79-1.37-5.62-2l-.16.48c1.79.62,3.68,1.29,5.58,1.99ZM336,128.4c1.9-.61,3.82-1.17,5.7-1.68l-.14-.48c-1.88.51-3.8,1.07-5.72,1.68Zm76-.12.14-.48c-1.92-.57-3.85-1.09-5.74-1.57l-.13.48c1.89.48,3.83,1.01,5.73,1.57Zm-11.51-2.9.1-.49c-1.95-.41-3.92-.77-5.86-1.09l-.08.49C396.59,124.61,398.55,124.98,400.49,125.38Zm-53.06-.08c1.95-.44,3.91-.82,5.83-1.15l-.08-.49c-1.93.33-3.9.71-5.85,1.15Zm41.34-1.84.06-.5c-2-.23-4-.42-5.93-.57v.5C384.83,123.03,386.82,123.23,388.77,123.46Zm-29.63-.16c2-.24,4-.42,5.91-.55v-.5c-2,.13-4,.32-5.94.55Zm11.85-.79c2,0,3.93,0,5.94.06v-.5c-1.4,0-2.8-.07-4.17-.07h-1.8Z" transform="translate(-301.82 -115.225)" fill="#fff"/>
        <path id="Path_47" data-name="Path 47" d="M297.76,137.64c28-14.93,55.44-21.94,81.64-20.84,27.7,1.17,46,9.78,65.34,18.89,20.69,9.74,42.08,19.81,75.91,19.81,37.12,0,60.59-11.24,74.63-18v-.55l-.11.05c-14,6.73-37.42,18-74.52,18-33.72,0-55.06-10-75.7-19.76-18.55-8.73-37.73-17.76-65.53-18.94-1.79-.07-3.59-.11-5.39-.11-24.61,0-50.28,7-76.39,20.95v.55Z" transform="translate(-297.64 -102.255)" fill="#fff"/>
        <path id="Path_48" data-name="Path 48" d="M297.76,150.64c28-14.93,55.44-21.94,81.64-20.84,27.7,1.17,46,9.78,65.34,18.89,20.69,9.74,42.08,19.81,75.91,19.81,37.12,0,60.59-11.24,74.63-18v-.55l-.11.05c-14,6.73-37.42,18-74.52,18-33.72,0-55.06-10.05-75.7-19.76-18.55-8.73-37.73-17.76-65.53-18.94-1.79-.07-3.59-.11-5.39-.11-24.61,0-50.28,7-76.39,20.95v.55Z" transform="translate(-297.64 -128.255)" fill="#fff"/>
      </g>
    </g>
    <g id="Road_SVG" data-name="Road SVG" clip-path="url(#clip-path-3)">
      <g id="Group_222" data-name="Group 222">
        <path id="Path_37-2" data-name="Path 37" d="M595.28,0V148.27c-34.37,18.34-62.06,21.7-81.77,20.87-58.32-2.47-76.81-38.7-141.24-38.7-36,0-59,10.5-74.63,18h0c-34.37,18.35-62.06,21.7-81.76,20.87-58.33-2.46-76.82-38.69-141.24-38.69C38.88,130.63,16,141,.32,148.5V0Z" transform="translate(-91)" fill="#fab62b"/>
        <g id="Group_221-2" data-name="Group 221" transform="translate(-104 299)">
          <path id="Path_38-2" data-name="Path 38" d="M297.64,133.45v15c-34.37,18.35-62.06,21.7-81.76,20.87-58.33-2.46-76.82-38.69-141.24-38.69C38.88,130.63,16,141,.32,148.5l-.32.15v-15l.32-.15C16,126,38.88,115.63,74.64,115.63c64.42,0,82.91,36.23,141.24,38.69C235.58,155.15,263.27,151.8,297.64,133.45Z" transform="translate(13 -285)" fill="#3f4456"/>
          <path id="Path_39-2" data-name="Path 39" d="M297.64,133.45h0v15h0Z" transform="translate(13 -285)" fill="#3f4456"/>
          <path id="Path_40-2" data-name="Path 40" d="M.08,141.47l-.08.05v.57l.32-.18Z" transform="translate(13 -285)" fill="#fff"/>
          <path id="Path_41-2" data-name="Path 41" d="M76.71,122.19H74.52v.5h5.89v-.5C79.2,122.21,78,122.19,76.71,122.19Zm-8.2.23c-2,.11-4,.26-5.94.44v.5c2-.18,4-.33,5.93-.44Zm17.87.12v.5c2,.15,4,.34,5.9.57l.06-.49q-2.985-.36-5.96-.58Zm-29.74,1c-2,.26-3.94.56-5.9.89l.08.49c2-.33,3.94-.63,5.88-.88Zm41.57.43-.08.5c1.93.32,3.89.69,5.83,1.11l.1-.49c-1.94-.43-3.91-.8-5.85-1.09Zm-53.33,1.55c-1.94.4-3.89.84-5.82,1.3l.11.49c1.93-.47,3.88-.9,5.81-1.3Zm65,.95-.12.48c1.87.49,3.8,1,5.71,1.61l.15-.48c-1.95-.59-3.88-1.14-5.76-1.62ZM33.3,128.32c-1.9.53-3.82,1.1-5.71,1.69l.15.48c1.88-.59,3.8-1.16,5.7-1.69Zm88,1.59-.16.47c1.81.63,3.69,1.3,5.59,2l.18-.47c-1.91-.71-3.82-1.39-5.64-2.01Zm-99.36,2c-1.88.66-3.76,1.36-5.59,2.08l.18.47c1.83-.72,3.7-1.42,5.57-2.08Zm110.52,2.21-.19.46c1.76.72,3.56,1.47,5.49,2.3l.2-.46c-1.96-.85-3.77-1.6-5.53-2.32ZM10.81,136.26c-1.85.8-3.67,1.64-5.42,2.49l.22.45c1.74-.85,3.56-1.68,5.4-2.49Zm132.58,2.53-.2.45,5.43,2.43.2-.45Q146.12,140,143.39,138.79Zm152.81,3.52c-1.78.95-3.55,1.87-5.28,2.74l.22.45c1.74-.87,3.52-1.8,5.29-2.75Zm-141.95,1.35-.21.46c1.81.81,3.62,1.62,5.44,2.41l.2-.45q-2.68-1.2-5.43-2.42Zm131.33,4c-1.81.86-3.63,1.69-5.42,2.47l.2.46c1.79-.79,3.62-1.62,5.43-2.47Zm-120.45.77-.19.46c1.94.82,3.74,1.56,5.51,2.26l.18-.46c-1.76-.69-3.56-1.44-5.5-2.26Zm109.55,4c-1.86.74-3.73,1.45-5.55,2.11l.17.47c1.83-.66,3.7-1.37,5.57-2.12Zm-98.5.39-.17.47c1.91.7,3.8,1.36,5.62,2l.16-.47c-1.79-.64-3.71-1.3-5.61-2Zm87.32,3.63c-1.91.6-3.83,1.17-5.7,1.68l.13.48c1.88-.51,3.8-1.08,5.72-1.69Zm-76,.12-.14.48c1.92.56,3.85,1.09,5.75,1.57l.12-.49c-1.93-.47-3.86-1-5.77-1.56Zm11.51,2.9-.1.49c1.95.4,3.92.77,5.86,1.09l.08-.5c-1.97-.31-3.94-.68-5.85-1.08Zm53.06.08c-1.95.43-3.91.82-5.83,1.15l.08.49c1.93-.33,3.9-.72,5.86-1.15Zm-41.34,1.84-.06.49c2,.24,4,.43,5.93.58v-.5c-1.97-.15-3.96-.34-5.91-.57Zm29.63.16c-2,.23-3.95.42-5.91.55v.5c2-.13,4-.32,5.94-.55Zm-11.85.78c-2,0-3.93,0-5.94-.05v.5c1.4,0,2.8.07,4.16.07h1.8Z" transform="translate(13 -285)" fill="#fff"/>
          <path id="Path_42-2" data-name="Path 42" d="M297.52,134.23c-28,14.93-55.44,21.94-81.63,20.84-27.71-1.17-46-9.77-65.35-18.89-20.69-9.73-42.08-19.8-75.9-19.8-37.13,0-60.59,11.24-74.64,18v.56l.11-.05c14-6.74,37.42-18,74.53-18,33.71,0,55.05,10,75.69,19.76,18.55,8.73,37.73,17.76,65.53,18.93,1.79.08,3.59.11,5.39.11,24.61,0,50.28-7,76.39-20.94v-.57Z" transform="translate(13 -285)" fill="#fff"/>
          <path id="Path_43-2" data-name="Path 43" d="M297.52,147.23c-28,14.93-55.44,21.94-81.63,20.84-27.71-1.17-46-9.77-65.35-18.89-20.69-9.73-42.08-19.8-75.9-19.8-37.13,0-60.59,11.24-74.64,18v.56l.11-.05c14-6.74,37.42-18,74.53-18,33.71,0,55.05,10,75.69,19.76,18.55,8.73,37.73,17.76,65.53,18.93,1.79.08,3.59.11,5.39.11,24.61,0,50.28-7,76.39-20.94v-.57Z" transform="translate(13 -285)" fill="#fff"/>
          <path id="Path_44-2" data-name="Path 44" d="M595.28,133.27v15c-34.37,18.34-62.06,21.7-81.77,20.87-58.32-2.47-76.81-38.7-141.24-38.7-36,0-59,10.5-74.63,18v-15c15.64-7.53,38.64-18,74.63-18,64.43,0,82.92,36.23,141.24,38.7C533.22,155,560.91,151.61,595.28,133.27Z" transform="translate(13 -285)" fill="#3f4456"/>
          <path id="Path_45-2" data-name="Path 45" d="M595.28,133.27h0v15h0Z" transform="translate(13 -285)" fill="#3f4456"/>
          <path id="Path_46-2" data-name="Path 46" d="M374.35,122h-2.24v.5h5.94V122Zm-8.2.22c-2,.11-4,.26-5.95.45l.05.5c2-.19,4-.34,5.93-.45Zm17.87.13v.5c2,.14,4,.33,5.91.57l.06-.5c-1.99-.22-3.99-.42-5.99-.56Zm-29.74,1c-2,.25-3.94.55-5.9.88l.08.49c2-.32,3.94-.62,5.88-.88Zm41.57.43-.08.49c1.93.32,3.89.7,5.83,1.11l.1-.49C399.76,124.48,397.79,124.1,395.85,123.78Zm-53.33,1.55c-1.94.39-3.9.83-5.83,1.3l.12.48c1.92-.46,3.88-.9,5.81-1.29Zm65,.94-.12.48c1.87.49,3.79,1,5.71,1.61l.15-.48c-1.95-.58-3.88-1.12-5.76-1.61Zm-76.58,1.85c-1.9.53-3.83,1.1-5.72,1.7l.15.47c1.89-.59,3.81-1.16,5.71-1.69Zm88,1.6-.16.47c1.81.62,3.69,1.3,5.59,2l.17-.46c-1.93-.73-3.81-1.39-5.63-2.01Zm-99.36,2c-1.88.67-3.76,1.37-5.59,2.09l.18.46c1.82-.72,3.7-1.41,5.57-2.08Zm110.52,2.22-.19.46c1.76.71,3.55,1.46,5.49,2.3l.2-.46c-1.97-.86-3.77-1.61-5.53-2.32Zm-121.62,2.15c-1.85.81-3.67,1.64-5.42,2.5l.21.45c1.75-.85,3.57-1.69,5.41-2.49ZM441,138.6l-.2.46q2.71,1.2,5.43,2.43l.2-.46Zm152.8,3.52c-1.77.95-3.54,1.87-5.27,2.75l.22.44c1.73-.87,3.51-1.8,5.29-2.74Zm-141.94,1.36-.21.45,5.44,2.42.2-.46q-2.7-1.2-5.4-2.41Zm131.32,4c-1.81.85-3.63,1.68-5.41,2.46l.2.46c1.79-.78,3.61-1.61,5.43-2.47Zm-120.44.76-.19.46c1.94.82,3.74,1.56,5.51,2.27l.18-.47c-1.73-.7-3.53-1.44-5.47-2.26Zm109.55,4c-1.86.74-3.73,1.46-5.56,2.11l.17.47c1.84-.66,3.71-1.37,5.57-2.12Zm-98.5.39-.17.47c1.9.7,3.79,1.37,5.62,2l.16-.48c-1.79-.62-3.68-1.29-5.58-1.99Zm87.31,3.63c-1.9.61-3.82,1.17-5.7,1.68l.14.48c1.88-.51,3.8-1.07,5.72-1.68Zm-76,.12-.14.48c1.92.57,3.85,1.09,5.74,1.57l.13-.48c-1.89-.48-3.83-1.01-5.73-1.57Zm11.51,2.9-.1.49c1.95.41,3.92.77,5.86,1.09l.08-.49C500.51,160.05,498.55,159.68,496.61,159.28Zm53.06.08c-1.95.44-3.91.82-5.83,1.15l.08.49c1.93-.33,3.9-.71,5.85-1.15Zm-41.34,1.84-.06.5c2,.23,4,.42,5.93.57v-.5C512.27,161.63,510.28,161.43,508.33,161.2Zm29.63.16c-2,.24-4,.42-5.91.55v.5c2-.13,4-.32,5.94-.55Zm-11.85.79c-2,0-3.93,0-5.94-.06v.5c1.4,0,2.8.07,4.17.07h1.8Z" transform="translate(13 -285)" fill="#fff"/>
          <path id="Path_47-2" data-name="Path 47" d="M595.16,134.05c-28,14.93-55.44,21.94-81.64,20.84-27.7-1.17-46-9.78-65.34-18.89-20.69-9.74-42.08-19.81-75.91-19.81-37.12,0-60.59,11.24-74.63,18v.55l.11-.05c14-6.73,37.42-18,74.52-18,33.72,0,55.06,10,75.7,19.76,18.55,8.73,37.73,17.76,65.53,18.94,1.79.07,3.59.11,5.39.11,24.61,0,50.28-7,76.39-20.95V134Z" transform="translate(13 -285)" fill="#fff"/>
          <path id="Path_48-2" data-name="Path 48" d="M595.16,147.05c-28,14.93-55.44,21.94-81.64,20.84-27.7-1.17-46-9.78-65.34-18.89-20.69-9.74-42.08-19.81-75.91-19.81-37.12,0-60.59,11.24-74.63,18v.55l.11-.05c14-6.73,37.42-18,74.52-18,33.72,0,55.06,10.05,75.7,19.76,18.55,8.73,37.73,17.76,65.53,18.94,1.79.07,3.59.11,5.39.11,24.61,0,50.28-7,76.39-20.95V147Z" transform="translate(13 -285)" fill="#fff"/>
        </g>
      </g>
    </g>
  </g>
</svg>
