<svg xmlns="http://www.w3.org/2000/svg" xmlns:xlink="http://www.w3.org/1999/xlink" width="156.175" height="165.277" viewBox="0 0 156.175 165.277">
  <defs>
    <filter id="Path_115" x="12.139" y="0" width="144.036" height="165.277" filterUnits="userSpaceOnUse">
      <feOffset dy="3" input="SourceAlpha"/>
      <feGaussianBlur stdDeviation="3" result="blur"/>
      <feFlood flood-opacity="0.161"/>
      <feComposite operator="in" in2="blur"/>
      <feComposite in="SourceGraphic"/>
    </filter>
  </defs>
  <g id="Terms_of_Use" data-name="Terms of Use" transform="translate(-226.122 -499.286)">
    <g id="Group_314" data-name="Group 314" transform="translate(192.211 -17.779)">
      <path id="Path_116" data-name="Path 116" d="M0,0H98.463l6.408,131.058H6.408Z" transform="translate(33.911 554.695) rotate(-19)" fill="#d9d9d9"/>
      <g transform="matrix(1, 0, 0, 1, 33.91, 517.06)" filter="url(#Path_115)">
        <path id="Path_115-2" data-name="Path 115" d="M0,0H98.463l6.408,131.058H6.408Z" transform="matrix(0.98, -0.17, 0.17, 0.98, 21.14, 24.21)" fill="#fff"/>
      </g>
      <text id="Terms_of_Use-2" data-name="Terms of Use" transform="translate(84.579 552.426) rotate(-11)" font-size="6" font-family="SegoeUI-Bold, Segoe UI" font-weight="700" opacity="0.27"><tspan x="0" y="0">Terms of Use</tspan></text>
      <path id="Path_117" data-name="Path 117" d="M0,0H81.913l5.331,69.6H5.331Z" transform="translate(71.829 576.204) rotate(-9)" fill="#dedede"/>
      <path id="Path_118" data-name="Path 118" d="M0,0H81.913l1.658,13.789-83.42,1.1Z" transform="translate(71.829 576.204) rotate(-9)" fill="#c9c9c9"/>
    </g>
    <path id="Path_119" data-name="Path 119" d="M1712.685,3468.559l80.344-13.391" transform="translate(-1452 -2923)" fill="none" stroke="#707070" stroke-width="1"/>
    <path id="Path_120" data-name="Path 120" d="M1712.685,3472.331l77.515-13.2" transform="translate(-1451 -2924)" fill="none" stroke="#707070" stroke-width="1"/>
    <path id="Path_121" data-name="Path 121" d="M1712.685,3468.73l57.844-9.6" transform="translate(-1451 -2917.399)" fill="none" stroke="#707070" stroke-width="1"/>
  </g>
</svg>
