<svg xmlns="http://www.w3.org/2000/svg" width="126.473" height="1792" viewBox="0 0 126.473 1792">
  <g id="schoollistbg" transform="translate(-6743.349 -21)">
    <path id="schoollistbg-2" data-name="schoollistbg" d="M6641.061,0s-21.7,19.4-13.675,36.951c8.827,19.3,47.419,38.311,45.674,63.261-3.286,46.985-87.616,159.571-79.95,200s51.791,55.66,58.362,101.553-5.482,54.966-41.624,118.342,22.768,89.338,35.91,129.768S6627.8,748.81,6627.8,770.664s39.182,62.153,42.08,75.675S6641.3,896,6641.3,896h63.522V0Z" transform="translate(165 21)" fill="#fab62b"/>
    <path id="schoollistbg-3" data-name="schoollistbg" d="M6641.366-.045S6590,41.255,6597.928,108.74c2.7,23.012,24.588,21.9,43.371,62.187a399.886,399.886,0,0,1,31.761,98.966c7.666,40.429-38.333,72.117-31.761,118.01s67.9,59,31.761,122.381-106.235,104.9-93.092,145.327,93.092,98.341,93.092,120.2-41.92,13.182-20.489,44.616S6641.3,896,6641.3,896h63.522V0Z" transform="translate(165 917)" fill="#fab62b"/>
  </g>
</svg>
