<svg xmlns="http://www.w3.org/2000/svg" width="162.536" height="111.374" viewBox="0 0 162.536 111.374">
  <g id="About_us" data-name="About us" transform="translate(1.001 1)">
    <path id="Subtraction_5" data-name="Subtraction 5" d="M43.339,87.079H0a51.224,51.224,0,0,1,2.595-15.3c1.554-4.725,3.479-8.212,5.151-9.326a4.693,4.693,0,0,1,2.892-.819c.312,0,.641.013.99.027l.088,0c.406.016.809.03,1.259.03,2.222,0,5.538-.344,11.5-3.031a19.722,19.722,0,0,0,11.053-12.09A45.1,45.1,0,0,1,30.5,26.9a30.378,30.378,0,0,1,1.828-10.47,27.376,27.376,0,0,1,4.986-8.55,23.318,23.318,0,0,1,7.395-5.765,20.431,20.431,0,0,1,16.677-.637,22.391,22.391,0,0,1,6.562,4.1A25.823,25.823,0,0,1,73.024,11.8a28.826,28.826,0,0,1,3.154,7.854,30.385,30.385,0,0,0-2.685,12.557,39.029,39.029,0,0,0,1,8.525,46.56,46.56,0,0,1-3.8,8.223,19.29,19.29,0,0,0,5.855,7.2,20.055,20.055,0,0,1-9.085,7.817c-5.963,2.686-9.279,3.031-11.5,3.031-.451,0-.853-.014-1.259-.03l-.088,0c-.349-.014-.678-.027-.99-.027a4.693,4.693,0,0,0-2.892.819c-1.371.914-2.956,3.5-4.348,7.083a52.964,52.964,0,0,0-3.048,12.229Z" transform="translate(-0.001 7.133)" fill="#bbb" stroke="#fcfcfc" stroke-width="2"/>
    <path id="Subtraction_6" data-name="Subtraction 6" d="M51.029,85.78c-5.9,0-11.442-2.756-15.613-7.761A29.211,29.211,0,0,1,28.95,59.281,45.77,45.77,0,0,1,33.719,39.9,19.218,19.218,0,0,0,23.23,27.989C17.569,25.343,14.422,25,12.313,25c-.427,0-.808.014-1.193.03l-.082,0c-.333.014-.647.027-.944.027a4.33,4.33,0,0,1-2.743-.806C4.111,22.014,0,10.143,0,0H41.133a53.793,53.793,0,0,0,2.893,12.047c1.322,3.533,2.826,6.076,4.127,6.977a4.33,4.33,0,0,0,2.743.806c.3,0,.61-.013.942-.027l.084,0c.385-.016.766-.03,1.193-.03,2.109,0,5.256.339,10.917,2.985a19.259,19.259,0,0,1,8.621,7.7A18.877,18.877,0,0,0,67.1,37.549a46.678,46.678,0,0,1,3.609,8.1,39.847,39.847,0,0,0-.953,8.4A30.9,30.9,0,0,0,72.3,66.417a29.024,29.024,0,0,1-2.994,7.737,25.272,25.272,0,0,1-4.815,6.133A19.646,19.646,0,0,1,51.029,85.78Z" transform="translate(160.535 94.212) rotate(180)" fill="#bbb" stroke="#fcfcfc" stroke-width="2"/>
    <path id="Path_112" data-name="Path 112" d="M25.8,0c14.25,0,25.8,13.357,25.8,29.834S40.052,68.168,25.8,68.168,0,46.311,0,29.834,11.552,0,25.8,0Z" transform="translate(83.484 0)" fill="#bbb" stroke="#fcfcfc" stroke-width="2"/>
    <path id="Path_113" data-name="Path 113" d="M25.8,0c14.25,0,25.8,13.357,25.8,29.834S40.052,68.168,25.8,68.168,0,46.311,0,29.834,11.552,0,25.8,0Z" transform="translate(22.558 0)" fill="#bbb" stroke="#fcfcfc" stroke-width="2"/>
    <g id="Group_296" data-name="Group 296" transform="translate(14.839 0)">
      <path id="Union_3" data-name="Union 3" d="M59.461,56.625H0C0,43.768,5.448,28.55,9.728,25.695c1.712-1.142,3.051-1.066,4.987-.99,2.9.115,7.154.228,16.027-3.768A24.717,24.717,0,0,0,45.741,0h40.75a24.717,24.717,0,0,0,15,20.936c8.872,4,13.122,3.883,16.027,3.768,1.936-.076,3.275-.152,4.987.99,4.281,2.855,9.729,18.073,9.729,30.93Z" transform="translate(0 52.749)" fill="#bbb" stroke="#fcfcfc" stroke-width="2"/>
      <path id="Path_104" data-name="Path 104" d="M29.221,0C45.359,0,58.442,15.127,58.442,33.787S45.359,77.2,29.221,77.2,0,52.447,0,33.787,13.083,0,29.221,0Z" transform="translate(38.312 0)" fill="#bbb" stroke="#fcfcfc" stroke-width="2"/>
    </g>
  </g>
</svg>
