<svg xmlns="http://www.w3.org/2000/svg" xmlns:xlink="http://www.w3.org/1999/xlink" width="414" height="298" viewBox="0 0 414 298">
  <defs>
    <style>
      .cls-1, .cls-5 {
        fill: #fff;
      }

      .cls-1 {
        stroke: #707070;
      }

      .cls-2 {
        clip-path: url(#clip-path);
      }

      .cls-3 {
        fill: #fab62b;
      }

      .cls-4 {
        fill: #3f4456;
      }
    </style>
    <clipPath id="clip-path">
      <rect id="Rectangle_120" data-name="Rectangle 120" class="cls-1" width="414" height="298" transform="translate(-1 36.638)"/>
    </clipPath>
  </defs>
  <g id="header" class="cls-2" transform="translate(1 -36.638)">
    <path id="Rectangle_105" data-name="Rectangle 105" class="cls-3" d="M0,0H414a0,0,0,0,1,0,0V235a30,30,0,0,1-30,30H30A30,30,0,0,1,0,235V0A0,0,0,0,1,0,0Z" transform="translate(-1 0.638)"/>
    <g id="Group_255" data-name="Group 255" transform="translate(-91 139.498)">
      <path id="Path_49" data-name="Path 49" class="cls-3" d="M595.28,0V146.129c-34.37,18.075-62.06,21.387-81.77,20.569-58.32-2.434-76.81-38.141-141.24-38.141-36,0-59,10.348-74.63,17.74h0c-34.37,18.085-62.06,21.387-81.76,20.569-58.33-2.424-76.82-38.131-141.24-38.131-35.76.01-58.64,10.23-74.32,17.622V0Z" transform="translate(0)"/>
      <g id="Group_224" data-name="Group 224" transform="translate(0 127.57)">
        <path id="Path_50" data-name="Path 50" class="cls-4" d="M297.64,133.193v14.783c-34.37,18.085-62.06,21.387-81.76,20.569-58.33-2.424-76.82-38.131-141.24-38.131-35.76,0-58.64,10.22-74.32,17.612l-.32.148V133.39l.32-.148C16,125.85,38.88,115.63,74.64,115.63c64.42,0,82.91,35.707,141.24,38.131C235.58,154.579,263.27,151.278,297.64,133.193Z" transform="translate(0 -115.443)"/>
        <path id="Path_51" data-name="Path 51" class="cls-4" d="M297.64,133.45h0v14.783h0Z" transform="translate(0 -115.7)"/>
        <path id="Path_52" data-name="Path 52" class="cls-5" d="M.08,141.47l-.08.049v.562l.32-.177Z" transform="translate(0 -115.816)"/>
        <path id="Path_53" data-name="Path 53" class="cls-5" d="M76.71,122.19H74.52v.493h5.89v-.493C79.2,122.21,78,122.19,76.71,122.19Zm-8.2.227c-2,.108-4,.256-5.94.434v.493c2-.177,4-.325,5.93-.434Zm17.87.118v.493c2,.148,4,.335,5.9.562l.06-.483q-2.985-.355-5.96-.572Zm-29.74.986c-2,.256-3.94.552-5.9.877l.08.483c2-.325,3.94-.621,5.88-.867Zm41.57.424-.08.493c1.93.315,3.89.68,5.83,1.094l.1-.483c-1.94-.424-3.91-.788-5.85-1.074Zm-53.33,1.528c-1.94.394-3.89.828-5.82,1.281l.11.483c1.93-.463,3.88-.887,5.81-1.281Zm65,.936-.12.473c1.87.483,3.8.986,5.71,1.587l.15-.473c-1.95-.582-3.88-1.124-5.76-1.6ZM33.3,128.231c-1.9.522-3.82,1.084-5.71,1.666l.15.473c1.88-.581,3.8-1.143,5.7-1.666Zm88,1.567-.16.463c1.81.621,3.69,1.281,5.59,1.971l.18-.463c-1.91-.7-3.82-1.37-5.64-1.981ZM21.94,131.77c-1.88.65-3.76,1.34-5.59,2.05l.18.463c1.83-.71,3.7-1.4,5.57-2.05Zm110.52,2.178-.19.453c1.76.71,3.56,1.449,5.49,2.267l.2-.453c-1.96-.838-3.77-1.577-5.53-2.286ZM10.81,136.057c-1.85.788-3.67,1.616-5.42,2.454l.22.443c1.74-.838,3.56-1.656,5.4-2.454Zm132.58,2.493-.2.443,5.43,2.395.2-.443Q146.12,139.743,143.39,138.55Zm152.81,3.469c-1.78.936-3.55,1.843-5.28,2.7l.22.443c1.74-.857,3.52-1.774,5.29-2.71ZM154.25,143.35l-.21.453c1.81.8,3.62,1.6,5.44,2.375l.2-.443q-2.68-1.183-5.43-2.385Zm131.33,3.942c-1.81.848-3.63,1.666-5.42,2.434l.2.453c1.79-.779,3.62-1.6,5.43-2.434Zm-120.45.759-.19.453c1.94.808,3.74,1.537,5.51,2.227l.18-.453c-1.76-.68-3.56-1.419-5.5-2.227Zm109.55,3.942c-1.86.729-3.73,1.429-5.55,2.08l.17.463c1.83-.65,3.7-1.35,5.57-2.089Zm-98.5.384-.17.463c1.91.69,3.8,1.34,5.62,1.971l.16-.463c-1.79-.631-3.71-1.281-5.61-1.971Zm87.32,3.578c-1.91.591-3.83,1.153-5.7,1.656l.13.473c1.88-.5,3.8-1.064,5.72-1.666Zm-76,.118-.14.473c1.92.552,3.85,1.074,5.75,1.547l.12-.483c-1.93-.463-3.86-.986-5.77-1.537Zm11.51,2.858-.1.483c1.95.394,3.92.759,5.86,1.074l.08-.493c-1.97-.306-3.94-.67-5.85-1.064Zm53.06.079c-1.95.424-3.91.808-5.83,1.133l.08.483c1.93-.325,3.9-.71,5.86-1.133Zm-41.34,1.813-.06.483c2,.237,4,.424,5.93.572v-.493c-1.97-.148-3.96-.335-5.91-.562Zm29.63.158c-2,.227-3.95.414-5.91.542v.493c2-.128,4-.315,5.94-.542Zm-11.85.769c-2,0-3.93,0-5.94-.049v.493c1.4,0,2.8.069,4.16.069h1.8Z" transform="translate(0 -115.537)"/>
        <path id="Path_54" data-name="Path 54" class="cls-5" d="M297.52,133.972c-28,14.714-55.44,21.623-81.63,20.539-27.71-1.153-46-9.629-65.35-18.617-20.69-9.589-42.08-19.514-75.9-19.514-37.13,0-60.59,11.078-74.64,17.74v.552l.11-.049c14-6.643,37.42-17.74,74.53-17.74,33.71,0,55.05,9.856,75.69,19.475,18.55,8.6,37.73,17.5,65.53,18.657,1.79.079,3.59.108,5.39.108,24.61,0,50.28-6.9,76.39-20.638v-.562Z" transform="translate(0 -115.454)"/>
        <path id="Path_55" data-name="Path 55" class="cls-5" d="M297.52,146.972c-28,14.714-55.44,21.623-81.63,20.539-27.71-1.153-46-9.629-65.35-18.617-20.69-9.589-42.08-19.514-75.9-19.514-37.13,0-60.59,11.078-74.64,17.74v.552l.11-.049c14-6.643,37.42-17.74,74.53-17.74,33.71,0,55.05,9.856,75.69,19.475,18.55,8.6,37.73,17.5,65.53,18.657,1.79.079,3.59.108,5.39.108,24.61,0,50.28-6.9,76.39-20.638v-.562Z" transform="translate(0 -115.641)"/>
        <path id="Path_56" data-name="Path 56" class="cls-4" d="M595.28,133.012V147.8c-34.37,18.075-62.06,21.387-81.77,20.569-58.32-2.434-76.81-38.141-141.24-38.141-36,0-59,10.348-74.63,17.74V133.18c15.64-7.421,38.64-17.74,74.63-17.74,64.43,0,82.92,35.707,141.24,38.141C533.22,154.429,560.91,151.088,595.28,133.012Z" transform="translate(0 -115.44)"/>
        <path id="Path_57" data-name="Path 57" class="cls-4" d="M595.28,133.27h0v14.783h0Z" transform="translate(0 -115.698)"/>
        <path id="Path_58" data-name="Path 58" class="cls-5" d="M374.35,122h-2.24v.493h5.94V122Zm-8.2.217c-2,.108-4,.256-5.95.443l.05.493c2-.187,4-.335,5.93-.444Zm17.87.128v.493c2,.138,4,.325,5.91.562l.06-.493c-1.99-.217-3.99-.414-5.99-.552Zm-29.74.986c-2,.246-3.94.542-5.9.867l.08.483c2-.315,3.94-.611,5.88-.867Zm41.57.424-.08.483c1.93.315,3.89.69,5.83,1.094l.1-.483C399.76,124.444,397.79,124.07,395.85,123.754Zm-53.33,1.528c-1.94.384-3.9.818-5.83,1.281l.12.473c1.92-.453,3.88-.887,5.81-1.271Zm65,.926-.12.473c1.87.483,3.79.986,5.71,1.587l.15-.473c-1.95-.572-3.88-1.1-5.76-1.587Zm-76.58,1.823c-1.9.522-3.83,1.084-5.72,1.675l.15.463c1.89-.581,3.81-1.143,5.71-1.666Zm88,1.577-.16.463c1.81.611,3.69,1.281,5.59,1.971l.17-.453c-1.93-.719-3.81-1.37-5.63-1.981Zm-99.36,1.971c-1.88.66-3.76,1.35-5.59,2.06l.18.453c1.82-.71,3.7-1.39,5.57-2.05Zm110.52,2.188-.19.453c1.76.7,3.55,1.439,5.49,2.267l.2-.453c-1.97-.848-3.77-1.587-5.53-2.287Zm-121.62,2.119c-1.85.8-3.67,1.616-5.42,2.464l.21.443c1.75-.838,3.57-1.666,5.41-2.454ZM441,138.36l-.2.453q2.71,1.183,5.43,2.395l.2-.453Zm152.8,3.469c-1.77.936-3.54,1.843-5.27,2.71l.22.434c1.73-.857,3.51-1.774,5.29-2.7Zm-141.94,1.34-.21.443L457.09,146l.2-.453q-2.7-1.183-5.4-2.375Zm131.32,3.942c-1.81.838-3.63,1.656-5.41,2.424l.2.453c1.79-.769,3.61-1.587,5.43-2.434Zm-120.44.749-.19.453c1.94.808,3.74,1.537,5.51,2.237l.18-.463c-1.73-.69-3.53-1.419-5.47-2.227ZM572.29,151.8c-1.86.729-3.73,1.439-5.56,2.08l.17.463c1.84-.65,3.71-1.35,5.57-2.089Zm-98.5.384-.17.463c1.9.69,3.79,1.35,5.62,1.971l.16-.473c-1.79-.611-3.68-1.271-5.58-1.961Zm87.31,3.578c-1.9.6-3.82,1.153-5.7,1.656l.14.473c1.88-.5,3.8-1.055,5.72-1.656Zm-76,.118-.14.473c1.92.562,3.85,1.074,5.74,1.547l.13-.473c-1.89-.473-3.83-1-5.73-1.547Zm11.51,2.858-.1.483c1.95.4,3.92.759,5.86,1.074l.08-.483C500.51,159.5,498.55,159.136,496.61,158.742Zm53.06.079c-1.95.434-3.91.808-5.83,1.133l.08.483c1.93-.325,3.9-.7,5.85-1.133Zm-41.34,1.813-.06.493c2,.227,4,.414,5.93.562V161.2C512.27,161.058,510.28,160.861,508.33,160.634Zm29.63.158c-2,.237-4,.414-5.91.542v.493c2-.128,4-.315,5.94-.542Zm-11.85.779c-2,0-3.93,0-5.94-.059V162c1.4,0,2.8.069,4.17.069h1.8Z" transform="translate(0 -115.535)"/>
        <path id="Path_59" data-name="Path 59" class="cls-5" d="M595.16,133.792c-28,14.714-55.44,21.623-81.64,20.539-27.7-1.153-46-9.639-65.34-18.617-20.69-9.6-42.08-19.524-75.91-19.524-37.12,0-60.59,11.078-74.63,17.74v.542l.11-.049c14-6.633,37.42-17.74,74.52-17.74,33.72,0,55.06,9.856,75.7,19.475,18.55,8.6,37.73,17.5,65.53,18.666,1.79.069,3.59.108,5.39.108,24.61,0,50.28-6.9,76.39-20.647v-.542Z" transform="translate(0 -115.451)"/>
        <path id="Path_60" data-name="Path 60" class="cls-5" d="M595.16,146.792c-28,14.714-55.44,21.623-81.64,20.539-27.7-1.153-46-9.639-65.34-18.617-20.69-9.6-42.08-19.524-75.91-19.524-37.12,0-60.59,11.078-74.63,17.74v.542l.11-.049c14-6.633,37.42-17.74,74.52-17.74,33.72,0,55.06,9.9,75.7,19.475,18.55,8.6,37.73,17.5,65.53,18.666,1.79.069,3.59.108,5.39.108,24.61,0,50.28-6.9,76.39-20.647v-.542Z" transform="translate(0 -115.639)"/>
      </g>
    </g>
  </g>
</svg>
